<?xml version="1.0" encoding="UTF-8" standalone="no"?>
<svg width="265px" height="81px" viewBox="0 0 265 81" version="1.1" xmlns="http://www.w3.org/2000/svg" xmlns:xlink="http://www.w3.org/1999/xlink" xmlns:sketch="http://www.bohemiancoding.com/sketch/ns">
    <!-- Generator: Sketch 3.4.3 (16618) - http://www.bohemiancoding.com/sketch -->
    <title>Logo</title>
    <desc>Created with Sketch.</desc>
    <defs>
        <filter x="-50%" y="-50%" width="200%" height="200%" filterUnits="objectBoundingBox" id="filter-1">
            <feOffset dx="0" dy="2" in="SourceAlpha" result="shadowOffsetOuter1"></feOffset>
            <feGaussianBlur stdDeviation="2" in="shadowOffsetOuter1" result="shadowBlurOuter1"></feGaussianBlur>
            <feColorMatrix values="0 0 0 0 0   0 0 0 0 0   0 0 0 0 0  0 0 0 0.35 0" in="shadowBlurOuter1" type="matrix" result="shadowMatrixOuter1"></feColorMatrix>
            <feMerge>
                <feMergeNode in="shadowMatrixOuter1"></feMergeNode>
                <feMergeNode in="SourceGraphic"></feMergeNode>
            </feMerge>
        </filter>
        <filter x="-50%" y="-50%" width="200%" height="200%" filterUnits="objectBoundingBox" id="filter-2">
            <feOffset dx="0" dy="2" in="SourceAlpha" result="shadowOffsetOuter1"></feOffset>
            <feGaussianBlur stdDeviation="2" in="shadowOffsetOuter1" result="shadowBlurOuter1"></feGaussianBlur>
            <feColorMatrix values="0 0 0 0 0   0 0 0 0 0   0 0 0 0 0  0 0 0 0.35 0" in="shadowBlurOuter1" type="matrix" result="shadowMatrixOuter1"></feColorMatrix>
            <feMerge>
                <feMergeNode in="shadowMatrixOuter1"></feMergeNode>
                <feMergeNode in="SourceGraphic"></feMergeNode>
            </feMerge>
        </filter>
    </defs>
    <g id="Welcome" stroke="none" stroke-width="1" fill="none" fill-rule="evenodd" sketch:type="MSPage">
        <g id="Desktop-Copy-2" sketch:type="MSArtboardGroup" transform="translate(-131.000000, -39.000000)">
            <g id="Logo" sketch:type="MSLayerGroup" transform="translate(135.000000, 40.000000)">
                <text id="Echohawk-" fill="white" filter="url(#filter-1)" sketch:type="MSTextLayer" font-family="HWT VanLanen" font-size="30" font-weight="normal">
                    <tspan x="79" y="28" fill="#FFFFFF">Echohawk </tspan>
                    <tspan x="79" y="61" fill="#FFFFFF">Taxidermy</tspan>
                </text>
                <path d="M51.691812,72.7632206 C49.0116824,74.7274853 43.0352009,72.0259412 42.2829509,70.6961176 C41.0406731,68.4984265 40.0715435,67.8324265 38.2709509,70.3837941 C37.6536361,68.2024265 38.4534139,66.2855 37.8142472,64.5813235 C36.3829509,64.3005588 36.6074787,66.4351324 35.1816454,66.1157353 C34.6834231,64.5971029 35.6984417,62.8727941 34.4184694,61.3057353 C33.6542009,62.7003088 32.9412843,64.00075 32.0278769,65.6684706 C31.7596454,64.38925 31.7651083,63.4354118 31.3630343,62.7041176 C30.5359417,61.1990882 32.2026917,57.8516765 28.3349139,58.4643529 C28.1961546,58.4866618 27.8110157,57.7564559 27.7536546,57.3472794 C27.6045157,56.2802647 27.487062,55.19475 27.516562,54.1206618 C27.5553491,52.7065 27.5788398,50.8815294 25.9060806,50.9805588 C24.3851917,51.0714265 25.2920435,52.9263235 25.2379602,53.9688529 C25.1745898,55.2061765 25.9765528,57.2955882 25.5280435,57.5638382 C23.6897565,58.6635 24.2185713,60.0107353 24.5315991,61.4319706 C24.6534231,61.9869706 24.8337009,62.6241324 24.2813954,62.8961912 C23.7411083,63.1628088 23.3264694,62.6208676 22.9609972,62.2160441 C20.5332565,59.5253824 18.0825713,56.8875 17.3521731,53.1145882 C17.0577194,51.5948676 16.2229787,50.0789559 14.418562,49.9483676 C12.7458028,49.8270294 12.7283213,51.5377353 12.1186546,52.5590441 C12.0257843,52.7146618 11.9378306,52.873 11.8389509,53.0253529 C10.4967009,55.0957206 8.34210833,56.1872206 6.11813611,56.1681765 C4.07935833,56.1513088 3.59206204,53.8850588 2.86931204,52.2227794 C1.31455278,48.6468382 2.46505278,45.6585441 4.89661759,43.0086912 C8.7004787,38.8646912 13.1309417,35.4084559 17.4843769,31.8727794 C17.9629324,31.4837353 18.6119324,31.1964412 18.6179417,30.1626176 C14.0235898,32.4473676 9.45600648,33.2281765 4.67864537,31.7198824 C3.0069787,31.1920882 1.45003426,30.4281471 0.566673148,28.8099412 C0.0832009259,27.9246618 -0.394808333,26.6786324 0.513136111,26.0741176 C1.54071944,25.3901618 1.89745093,26.7629706 2.4328213,27.3941471 C4.571025,29.9155882 7.53959907,30.673 9.9110713,29.2844118 C11.2342009,28.5101324 11.946025,27.6928676 10.1967843,26.5475 C9.36805278,26.0050147 8.58684907,25.3575147 7.89633056,24.6490735 C7.32435833,24.0625147 5.98210833,23.6087206 6.70649722,22.5645588 C7.29376574,21.7168235 8.170025,22.6614118 8.87474722,22.9340147 C9.97553426,23.3595147 11.0184139,23.9379118 12.1290343,24.3296765 C16.1601546,25.7509118 18.5114139,24.7796618 20.3016269,20.9147941 C21.2549139,18.8580294 22.0169972,16.7136618 22.9801176,14.6623382 C23.5728491,13.3999853 24.0366546,11.9172647 25.9514231,11.5673971 C25.7236176,12.8036324 25.4504694,13.9179853 25.3291917,15.0481176 C25.2079139,16.1766176 24.6648954,17.8040735 25.9350343,18.2295735 C27.4297009,18.7307059 27.5356824,16.9280441 28.0448306,15.9671324 C28.6801731,14.7673529 29.1396083,13.4592941 29.887488,12.3389559 C30.791062,10.9851912 31.6777009,9.48886765 33.633988,9.09710294 C33.8393954,11.5146176 32.4266731,13.1877794 31.5591546,15.0388676 C30.919988,16.4029706 30.138238,18.2007353 31.5302009,18.9701176 C32.9472935,19.7536471 33.9683213,18.0266176 34.7435157,16.8165 C36.5719694,13.9626029 37.5307194,10.7223824 38.8156083,7.62852941 C39.3449694,6.35529412 39.8748769,5.14952941 41.5727657,4.80347059 C41.1745157,6.48642647 40.7374787,8.05022059 40.4544972,9.64067647 C40.2971639,10.5254118 40.2878769,11.6789412 41.2526361,12.0315294 C42.4315435,12.4619265 42.714525,11.2376618 43.0723491,10.4661029 C43.6426824,9.23422059 44.0316454,7.91691176 44.6205528,6.69482353 C45.3094324,5.26651471 45.8256824,3.61457353 47.9808213,3.24947059 C47.6459417,5.30460294 47.3225343,7.24220588 47.0198861,9.18252941 C46.9324787,9.74079412 47.0685065,10.2892647 47.4924324,10.6625294 C47.8322287,10.9617941 48.1119324,10.6168235 48.4205898,10.4258382 C51.6098676,8.45177941 52.6008491,5.94557353 51.6158769,2.27604412 C51.5088028,1.87829412 51.1105528,1.45551471 51.6497472,1.08714706 C52.0917009,0.785161765 52.5107102,1.06429412 52.9422843,1.17039706 C54.2752472,1.4985 54.6358028,2.96544118 55.655738,3.62817647 C56.8750713,2.77989706 56.1271917,1.14972059 57.237812,0.257367647 C57.8988306,1.97623529 59.042775,3.46222059 58.7144509,5.26488235 C57.4907472,11.9825588 54.6013861,17.6696765 47.9988491,20.5877794 C42.5927009,22.9775441 37.0477935,25.0566176 31.5651639,27.2744412 C29.857988,27.9654706 28.2671731,28.8121176 27.3619602,30.5266324 C27.1041083,31.0147059 26.8915991,31.5615441 27.1964324,32.079 C27.6209046,32.8005 28.1628306,32.2765147 28.5720065,32.0561471 C29.8956824,31.3433529 31.2215435,31.5658971 32.5441269,31.9625588 C35.3313306,32.7977794 38.1360157,33.5878382 40.8784231,34.5514706 C42.9570806,35.2816765 44.641312,35.1891765 46.3468491,33.5584559 C48.0239787,31.9543971 50.2512287,31.3422647 52.5948398,31.2290882 L51.691812,72.7632206 Z" id="Fill-1" fill="#FFFFFF" filter="url(#filter-2)" sketch:type="MSShapeGroup"></path>
            </g>
        </g>
    </g>
</svg>